<?xml version="1.0" standalone="no"?>
<!DOCTYPE svg PUBLIC "-//W3C//DTD SVG 20010904//EN"
 "http://www.w3.org/TR/2001/REC-SVG-20010904/DTD/svg10.dtd">
<svg version="1.0" xmlns="http://www.w3.org/2000/svg"
 width="1024.000000pt" height="1024.000000pt" viewBox="0 0 1024.000000 1024.000000"
 preserveAspectRatio="xMidYMid meet">
<metadata>
Created by potrace 1.14, written by Peter Selinger 2001-2017
</metadata>
<g transform="translate(0.000000,1024.000000) scale(0.100000,-0.100000)"
fill="#000000" stroke="none">
<path d="M10 5120 l0 -5110 5110 0 5110 0 0 5110 0 5110 -5110 0 -5110 0 0
-5110z m5938 2869 c292 -32 548 -120 768 -265 110 -73 303 -261 371 -364 150
-225 229 -471 254 -796 32 -414 -67 -811 -284 -1131 -230 -341 -510 -519 -952
-605 -107 -21 -137 -22 -1132 -25 l-1023 -4 0 -1174 0 -1175 -375 0 -375 0 0
2775 0 2775 1325 0 c868 0 1359 -4 1423 -11z"/>
<path d="M3957 7354 c-4 -4 -7 -439 -7 -966 l0 -958 788 0 c469 0 831 4 897
10 461 44 759 221 878 521 82 206 97 518 36 760 -74 294 -264 485 -571 573
-197 57 -230 58 -1158 63 -470 3 -858 1 -863 -3z"/>
</g>
</svg>
